Coordinates
version=1
nRows=4
nColumns=107
inDegrees=yes

Units are S.I. units (second, meters, Newtons, ...)
If the header above contains a line with 'inDegrees', this indicates whether rotational values are in degrees (yes) or radians (no).

endheader
time	sternoclavicular_r2	sternoclavicular_r3	unrotscap_r3	unrotscap_r2	acromioclavicular_r2	acromioclavicular_r3	acromioclavicular_r1	unrothum_r1	unrothum_r3	unrothum_r2	elv_angle	shoulder_elv	shoulder1_r2	shoulder_rot	elbow_flexion	pro_sup	deviation	flexion	proximal_distal_r1	proximal_distal_r3	cmc_flexion	cmc_abduction	mp_flexion	ip_flexion	mcp2_flexion	mcp2_abduction	pm2_flexion	md2_flexion	mcp3_flexion	mcp3_abduction	pm3_flexion	md3_flexion	mcp4_flexion	mcp4_abduction	pm4_flexion	md4_flexion	mcp5_flexion	mcp5_abduction	pm5_flexion	md5_flexion	bicpt_tx	bicpt_ty	bicpt_tz	bicpt2_tx	bicpt2_ty	bicpt2_tz	ptpt_tx	ptpt_ty	ptpt_tz	FCUpt_tx	FCUpt_ty	FCUpt_tz	EDCpt_tx	EDCpt_ty	EDCpt_tz	APLpt_tx	APLpt_ty	APLpt_tz	FPLpt_tx	FPLpt_ty	FPLpt_tz	FPLpt2_tx	FPLpt2_ty	FPLpt2_tz	PEC1pt2_tx	PEC1pt2_ty	PEC1pt2_tz	PEC1pt3_tx	PEC1pt3_ty	PEC1pt3_tz	PEC2pt2_tx	PEC2pt2_ty	PEC2pt2_tz	PEC2pt3_tx	PEC2pt3_ty	PEC2pt3_tz	PEC3pt2_tx	PEC3pt2_ty	PEC3pt2_tz	PEC3pt3_tx	PEC3pt3_ty	PEC3pt3_tz	DELT2pt2a_tx	DELT2pt2a_ty	DELT2pt2a_tz	DELT2pt2_tx	DELT2pt2_ty	DELT2pt2_tz	LAT1pt2_tx	LAT1pt2_ty	LAT1pt2_tz	LAT1pt3_tx	LAT1pt3_ty	LAT1pt3_tz	LAT2pt2_tx	LAT2pt2_ty	LAT2pt2_tz	LAT2pt3_tx	LAT2pt3_ty	LAT2pt3_tz	LAT3pt2_tx	LAT3pt2_ty	LAT3pt2_tz	LAT3pt3_tx	LAT3pt3_ty	LAT3pt3_tz
      0.60000000	     -0.32221552	      0.13647529	     -0.13647529	      0.32221552	     -0.06524209	      0.52726361	      0.23700136	     -0.23700136	     -0.52726361	      0.06524209	     99.46708363	     76.28738784	     -1.73602811	    -26.87709252	     29.02841069	     67.18136786	      0.36187585	     -0.67493548	      0.38392960	     -0.33746774	     37.73156470	    -10.48405806	      1.09189303	      6.24408449	     99.35204088	     12.45735074	     81.19455187	     75.06847987	     95.93304394	      0.55644325	     83.89517088	     54.29310760	     98.64444016	    -13.47409565	     89.94191962	     43.49075282	    101.29349122	    -14.16624846	     88.62918198	      5.50571407	      0.00086017	     -0.03092710	     -0.00483591	      0.01578007	     -0.01808571	     -0.00405043	      0.00258605	     -0.06810977	     -0.00546182	      0.01063084	     -0.18282473	     -0.00030118	     -0.00806175	      0.00259997	     -0.00024892	      0.00030906	      0.00012362	      0.00061812	      0.00039560	      0.00118680	      0.00066757	     -0.00001242	     -0.00015239	     -0.00018287	      0.00250053	      0.00877306	      0.00610300	     -0.00817971	      0.01974997	     -0.01873281	      0.00250053	      0.00877306	      0.00610300	      0.00055096	      0.01830899	     -0.00962070	      0.00395250	      0.00487859	      0.01597877	      0.00000000	      0.00778331	      0.00000000	     -0.00716254	     -0.03310028	     -0.00641772	      0.01742847	     -0.00065195	     -0.00603929	     -0.00089002	      0.01491844	     -0.00610300	      0.00245815	      0.02153001	     -0.01780041	     -0.00597585	      0.01292648	     -0.00546727	     -0.01246028	      0.02729396	     -0.03055736	     -0.02339482	      0.01445223	     -0.00733207	     -0.01551178	      0.03153215	     -0.03818611
      0.63333333	     -0.31981134	      0.13545699	     -0.13545699	      0.31981134	     -0.06475529	      0.52332949	      0.23523300	     -0.23523300	     -0.52332949	      0.06475529	    100.20397398	     75.71817800	     -1.74888927	    -30.08973096	     28.96642744	     69.65183144	      0.34034867	     -0.71810910	      0.36708753	     -0.35905455	     38.27369181	    -10.48733852	      0.84346329	      6.30156353	     99.87881643	     12.44893011	     81.14725142	     74.85963382	     96.09833352	      0.62648430	     83.85153155	     54.26636998	     98.84903506	    -13.46260769	     90.13210963	     43.44659482	    101.21825231	    -14.15946845	     88.80663583	      5.49904858	      0.00085812	     -0.03092000	     -0.00483476	      0.01562408	     -0.01806887	     -0.00368827	      0.00240352	     -0.06822780	     -0.00566083	      0.01090123	     -0.18275341	     -0.00026585	     -0.00835820	      0.00272213	     -0.00030471	      0.00030287	      0.00012115	      0.00060574	      0.00038767	      0.00116302	      0.00065420	     -0.00001214	     -0.00014321	     -0.00017186	      0.00248188	      0.00870760	      0.00605746	     -0.00811868	      0.01960261	     -0.01859303	      0.00248188	      0.00870760	      0.00605746	      0.00054685	      0.01817238	     -0.00954891	      0.00393091	      0.00484218	      0.01592587	      0.00000000	      0.00766680	      0.00000000	     -0.00710910	     -0.03285330	     -0.00632099	      0.01891786	     -0.00076016	     -0.00754245	     -0.00088338	      0.01480712	     -0.00605746	      0.00243981	      0.02136937	     -0.01766759	     -0.00593126	      0.01283004	     -0.00542647	     -0.01236731	      0.02709030	     -0.03032936	     -0.02322026	      0.01434440	     -0.00727736	     -0.01539604	      0.03129687	     -0.03790119
      0.66666667	     -0.31318396	      0.13264994	     -0.13264994	      0.31318396	     -0.06341338	      0.51248464	      0.23035832	     -0.23035832	     -0.51248464	      0.06341338	    101.74605444	     74.14908579	     -1.77580365	    -38.22196251	     30.49243387	     78.56530007	      0.33088878	     -0.63713992	      0.35944649	     -0.31856996	     39.31834519	    -10.55201821	     -1.07309205	     10.09485277	     99.16024801	     12.73335442	     81.82381927	     71.22914984	     95.38857552	      1.36519980	     83.85553859	     52.29577879	     97.65346046	    -13.35168705	     90.18781805	     44.11149411	     99.31605702	    -14.14965402	     89.08177667	      5.50150209	      0.00090860	     -0.03109490	     -0.00486294	      0.01494521	     -0.01848342	     -0.00231048	      0.00174491	     -0.06865367	     -0.00637886	      0.01189246	     -0.18248166	     -0.00010017	     -0.00942781	      0.00317855	     -0.00053347	      0.00031192	      0.00012477	      0.00062385	      0.00039926	      0.00119779	      0.00067376	     -0.00001123	     -0.00012411	     -0.00014893	      0.00243044	      0.00852715	      0.00593193	     -0.00795044	      0.01919639	     -0.01820774	      0.00243044	      0.00852715	      0.00593193	      0.00053552	      0.01779580	     -0.00935103	      0.00387081	      0.00474184	      0.01577600	      0.00000000	      0.00735030	      0.00000000	     -0.00696178	     -0.03217249	     -0.00605814	      0.02207074	     -0.00104636	     -0.01187949	     -0.00086507	      0.01450028	     -0.00593193	      0.00238925	      0.02092654	     -0.01730147	     -0.00580835	      0.01256416	     -0.00531402	     -0.01211103	      0.02652892	     -0.02970085	     -0.02273907	      0.01404714	     -0.00712656	     -0.01507699	      0.03064831	     -0.03711577
      0.70000000	     -0.31558501	      0.13366691	     -0.13366691	      0.31558501	     -0.06389954	      0.51641364	      0.23212438	     -0.23212438	     -0.51641364	      0.06389954	    101.15599906	     74.71755593	     -1.76550524	    -35.25021135	     29.95387928	     75.50423734	      0.33700412	     -0.65790263	      0.36440330	     -0.32895132	     39.33646413	    -10.38092151	     -1.88533867	     10.60612258	     99.60958753	     12.68401151	     81.99047824	     70.80621048	     95.74197146	      1.03996535	     83.90122372	     51.85708874	     98.00905864	    -13.39785373	     89.90655606	     43.83506153	     99.92580286	    -14.15519034	     88.74434074	      5.48729619	      0.00089078	     -0.03103317	     -0.00485299	      0.01519884	     -0.01833712	     -0.00279620	      0.00197109	     -0.06850742	     -0.00613227	      0.01154929	     -0.18257753	     -0.00016381	     -0.00906049	      0.00301904	     -0.00045005	      0.00031065	      0.00012426	      0.00062130	      0.00039763	      0.00119290	      0.00067101	     -0.00001121	     -0.00012377	     -0.00014853	      0.00244908	      0.00859253	      0.00597741	     -0.00801139	      0.01934356	     -0.01834733	      0.00244908	      0.00859253	      0.00597741	      0.00053963	      0.01793223	     -0.00942272	      0.00389269	      0.00477819	      0.01583099	      0.00000000	      0.00746417	      0.00000000	     -0.00701515	     -0.03241914	     -0.00615272	      0.02102111	     -0.00093997	     -0.01021403	     -0.00087171	      0.01461145	     -0.00597741	      0.00240757	      0.02108697	     -0.01743411	     -0.00585288	      0.01266049	     -0.00535476	     -0.01220388	      0.02673230	     -0.02992856	     -0.02291340	      0.01415484	     -0.00718119	     -0.01519258	      0.03088328	     -0.03740032
